<?xml version="1.0" standalone="no"?>
<!DOCTYPE svg PUBLIC "-//W3C//DTD SVG 20010904//EN"
 "http://www.w3.org/TR/2001/REC-SVG-20010904/DTD/svg10.dtd">
<svg version="1.0" xmlns="http://www.w3.org/2000/svg"
 width="968.000000pt" height="968.000000pt" viewBox="0 0 968.000000 968.000000"
 preserveAspectRatio="xMidYMid meet">
<metadata>
Created by potrace 1.14, written by Peter Selinger 2001-2017
</metadata>
<g transform="translate(0.000000,968.000000) scale(0.100000,-0.100000)"
fill="#000000" stroke="none">
<path d="M4627 6544 c-1 -1 -65 -5 -142 -9 -224 -11 -329 -19 -430 -31 -27 -3
-70 -7 -95 -9 -25 -1 -55 -3 -67 -4 -24 -1 -36 -31 -48 -121 -3 -25 -10 -61
-15 -80 -5 -19 -12 -53 -15 -75 -3 -22 -8 -51 -12 -65 -3 -14 -7 -34 -9 -45
-1 -11 -5 -33 -8 -50 -3 -16 -10 -55 -16 -85 -6 -30 -12 -66 -15 -80 -3 -14
-8 -41 -11 -60 -3 -19 -7 -42 -10 -50 -3 -8 -8 -33 -10 -55 -3 -22 -10 -58
-16 -80 -5 -22 -12 -56 -14 -75 -3 -19 -7 -42 -9 -50 -2 -8 -7 -31 -10 -50 -5
-34 -19 -108 -31 -160 -3 -14 -7 -41 -10 -60 -2 -19 -8 -55 -14 -80 -5 -25
-12 -56 -14 -70 -2 -14 -7 -43 -12 -65 -4 -22 -9 -49 -10 -60 -1 -11 -3 -20
-4 -20 -3 0 -10 -38 -15 -75 -2 -19 -5 -36 -6 -37 -2 -4 -4 -12 -14 -68 -4
-27 -10 -57 -11 -65 -2 -8 -6 -32 -9 -54 -3 -21 -7 -42 -10 -46 -3 -4 -7 -25
-11 -46 -3 -22 -12 -70 -20 -109 -8 -38 -16 -83 -18 -100 -3 -16 -7 -43 -10
-60 -8 -37 -24 -121 -30 -155 -3 -14 -12 -63 -21 -109 -9 -46 -19 -98 -21
-115 -7 -39 -10 -58 -24 -126 -6 -30 -13 -68 -16 -85 -3 -16 -14 -75 -24 -130
-11 -55 -22 -113 -25 -130 -3 -16 -7 -41 -10 -55 -16 -82 -45 -245 -45 -252 0
-4 249 -8 554 -8 520 0 555 1 560 18 3 9 8 40 12 67 5 28 9 52 9 55 2 8 17 83
21 103 2 10 6 26 8 35 3 9 8 35 11 57 2 22 12 75 21 118 8 43 17 90 19 105 2
15 4 27 5 27 2 0 9 33 14 70 3 17 14 75 25 130 11 55 23 117 27 139 3 21 8 48
10 60 13 58 26 124 30 146 15 86 57 306 69 365 8 39 17 84 20 100 2 17 9 55
15 85 15 75 17 84 50 260 16 85 32 166 35 180 3 14 8 41 10 60 3 19 8 46 12
60 9 35 10 44 17 87 3 21 14 81 25 133 10 52 22 109 25 125 5 33 32 174 41
217 3 16 7 40 10 55 2 16 8 48 14 73 5 25 12 59 14 75 3 17 9 44 12 61 l7 32
147 -3 c91 -2 166 -9 199 -18 108 -31 185 -96 227 -191 30 -69 41 -127 46
-251 1 -26 -12 -193 -17 -225 -4 -19 -8 -42 -9 -50 -17 -95 -79 -258 -120
-315 -31 -44 -88 -109 -109 -124 -11 -8 -27 -22 -37 -32 -18 -18 -54 -40 -109
-64 -19 -8 -43 -20 -52 -25 -38 -22 -235 -57 -273 -50 -19 4 -35 0 -35 -9 0
-8 67 -77 104 -108 74 -61 219 -133 315 -155 74 -17 375 -13 451 6 14 3 36 8
50 10 127 20 310 99 419 179 89 66 270 257 244 257 -4 0 -3 4 3 8 23 15 95
167 118 252 15 54 19 73 36 175 8 52 6 315 -3 350 -3 11 -10 41 -16 67 -10 44
-19 70 -44 128 -43 97 -150 225 -239 286 -24 16 -45 31 -48 34 -5 6 -82 43
-150 73 -60 27 -186 63 -255 73 -16 2 -37 6 -45 9 -8 3 -38 8 -65 11 -28 3
-61 8 -75 11 -24 5 -967 12 -973 7z"/>
</g>
</svg>
